# xmcd CD database file
#
# Track frame offsets:
#	150
#	14679
#	33469
#	51193
#	70915
#	88525
#	106249
#	123301
#	144923
#	161910
#	178985
#	195142
#
# Disc length: 2800 seconds
#
# Revision: 0
# Processed by: cddbd v1.5.1PL2 Copyright (c) Steve Scherf et al.
# Submitted via: CDex 1.51
#
DISCID=a10aee0c
DTITLE=B'z - GREEN
DYEAR=2002
DGENRE=DOMESTIC(J-POPS)
TTITLE0=STAY GREEN\x{ff5e}未熟な旅はとまらない\x{ff5e}
TTITLE1=熱き鼓動の果て
TTITLE2=Warp
TTITLE3=SIGNAL
TTITLE4=SURFIN'3000GTR
TTITLE5=Blue Sunshine
TTITLE6=ultra soul(Alternative Guitar Solo ver.)
TTITLE7=美しき世界
TTITLE8=Everlasting
TTITLE9=FOREVER MINE
TTITLE10=The Spiral
TTITLE11=GO★FIGHT★WIN
EXTD=YEAR: 2002
EXTT0=
EXTT1=
EXTT2=
EXTT3=
EXTT4=
EXTT5=
EXTT6=
EXTT7=
EXTT8=
EXTT9=
EXTT10=
EXTT11=
PLAYORDER=
